<?xml version="1.0" encoding="utf-8"?>
<!-- Generator: Adobe Illustrator 24.3.0, SVG Export Plug-In . SVG Version: 6.00 Build 0)  -->
<svg version="1.1" xmlns="http://www.w3.org/2000/svg" xmlns:xlink="http://www.w3.org/1999/xlink" x="0px" y="0px"
	 viewBox="0 0 1280 1024" style="enable-background:new 0 0 1280 1024;" xml:space="preserve">
<style type="text/css">
	.st0{display:none;}
	.st1{fill:#FFFFFF;stroke:#231815;stroke-width:4;stroke-miterlimit:10;}
	.st2{fill:#231815;}
	.st3{fill:#FFFFFF;}
	.st4{fill:#FFFFFF;stroke:#231815;stroke-width:3;stroke-miterlimit:10;}
	.st5{fill:none;stroke:#231815;stroke-width:3;stroke-miterlimit:10;}
	.st6{fill:none;stroke:#231815;stroke-width:10;stroke-miterlimit:10;}
	.st7{fill:none;stroke:#231815;stroke-width:10;stroke-linecap:square;stroke-miterlimit:10;}
	.st8{fill:none;stroke:#231815;stroke-width:10;stroke-linecap:square;stroke-linejoin:bevel;stroke-miterlimit:10;}
	.st9{fill:none;stroke:#231815;stroke-width:10;stroke-linejoin:bevel;stroke-miterlimit:10;}
	.st10{fill:none;stroke:#009844;stroke-width:10;stroke-miterlimit:10;}
</style>
<g id="レイヤー_1" class="st0">
	<circle class="st1" cx="659.39" cy="489.93" r="294.93"/>
	
		<ellipse transform="matrix(0.7071 -0.7071 0.7071 0.7071 -153.5957 609.8783)" class="st2" cx="659.39" cy="490.35" rx="278.2" ry="278.2"/>
	<polygon class="st3" points="663.27,769.48 522.96,496.45 663.27,223.42 803.59,496.45 	"/>
	<polygon class="st4" points="664.16,745.1 537.02,497.74 664.16,250.36 791.3,497.74 	"/>
	<polygon class="st5" points="664.16,365.69 634.53,308.03 664.16,250.36 693.79,308.03 	"/>
	<circle class="st2" cx="662.22" cy="505.14" r="23.61"/>
	<line class="st5" x1="553.55" y1="465.61" x2="681.54" y2="711.29"/>
	<line class="st5" x1="662.22" y1="505.14" x2="664.16" y2="365.69"/>
</g>
<g id="レイヤー_2">
	<line class="st6" x1="400.53" y1="373.12" x2="400.53" y2="651.54"/>
	<path class="st6" d="M468.45,655.59"/>
	<path class="st6" d="M517.02,543.4"/>
	<line class="st6" x1="435.49" y1="423.7" x2="434.33" y2="379.75"/>
	<line class="st6" x1="522.81" y1="420.23" x2="522.81" y2="379.17"/>
	<line class="st7" x1="434.33" y1="379.75" x2="522.81" y2="379.17"/>
	<path class="st8" d="M655.72,511.94c-0.37-56.37-32.82-107.92-83.57-132.77c0,89.16,0,178.33,0,267.49
		C623.52,621.5,656.09,569,655.72,511.94z"/>
	<polyline class="st9" points="659.83,651.29 719.65,374.54 767.6,651.29 	"/>
	<path class="st6" d="M816.01,646.66"/>
	<path class="st6" d="M781.76,579.07"/>
	<polyline class="st9" points="777.41,568.99 819.56,648.67 865.17,372.5 907.13,452.93 	"/>
	<path class="st10" d="M918.27,459.69"/>
	<path class="st10" d="M876.12,380.01"/>
	<path class="st9" d="M533.69,647.61l-21.97-114.5c-50.74,114.5-50.74,114.5-50.74,114.5l-21.97-114.5l21.97,114.5"/>
	<g>
	</g>
	<g>
	</g>
	<g>
	</g>
	<g>
	</g>
	<g>
	</g>
	<g>
	</g>
	<g>
	</g>
	<g>
	</g>
	<g>
	</g>
	<g>
	</g>
	<g>
	</g>
	<g>
	</g>
	<g>
	</g>
	<g>
	</g>
	<g>
	</g>
</g>
</svg>
